<?xml version="1.0" encoding="utf-8"?>
<!-- Generator: Adobe Illustrator 22.1.0, SVG Export Plug-In . SVG Version: 6.00 Build 0)  -->
<svg version="1.1" id="Calque_1" xmlns="http://www.w3.org/2000/svg" xmlns:xlink="http://www.w3.org/1999/xlink" x="0px" y="0px"
	 viewBox="0 0 39.9 10.7" style="enable-background:new 0 0 39.9 10.7;" xml:space="preserve">
<style type="text/css">
	.st0{fill:#222221;}
	.st1{fill:#00AAB8;}
</style>
<title>logo/fnac+</title>
<desc>Created with Sketch.</desc>
<g id="logo_x2F_fnac_x2B_">
	<g id="logo_x5F_fnac_x2B_" transform="translate(-0.000000, 14.292683)">
		<path id="LogoFnac" class="st0" d="M9.3-11.5c0,0,4.1-0.9,4.5,2.1v4.3H12v-3.6c-0.3-1.9-2.3-1.6-2.3-1.6c-1.4,0.1-1.8,1-1.9,1.6
			l0,3.6H6v-5.1H2.8v5.1H1l0-5.1H0.1L0-11.5h1c0-0.3,0-1.4,0.8-2.1c0,0,0.9-0.9,3.4-0.7c0,0,2.6,0.2,2.6,2.2l-1.8,0
			c0,0-0.1-1.1-1.7-1c0,0-1.7,0-1.5,1.6h5l0,0.9C8-10.8,8.3-11.2,9.3-11.5z M21.8-9l0,3.8h-1.8L20-5.9v0c-0.7,0.9-2.4,0.9-2.4,0.9
			c-3.3,0.1-3.2-1.8-3.2-1.8c-0.3-1.9,2.1-1.9,4.1-2C20.4-9,20-9.8,20-9.8c-0.1-0.7-1.5-0.7-1.5-0.7c-2-0.2-2,1.1-2,1.1h-1.9
			c0,0,0-1.6,2-2.1c0,0,1.2-0.4,3.2,0C19.7-11.6,22-11.3,21.8-9z M26-5.1c-0.7,0-1.2-0.1-1.6-0.3c-0.8-0.3-2.1-1.2-2.1-2.9l0-0.2
			c0-1.7,1.3-2.6,2.1-2.9c0.4-0.2,1-0.2,1.6-0.3c1.9-0.1,2.9,0.4,3.5,0.9c0,0,0.5,0.5,0.5,1.3l-0.8,0h-0.9c-0.3-0.6-0.8-0.9-1.8-0.9
			c0,0-2.2-0.1-2.3,2v0.1c0.1,2.1,2.3,2,2.3,2c1,0,1.6-0.3,1.8-0.9h1.6c0,0,0,1-1.3,1.7C27.7-5,26.6-5.1,26-5.1z M20-8.2
			C20-8.2,20-8.2,20-8.2c-0.2,0.3-1.2,0.3-1.2,0.3c-1,0.1-2.5,0-2.4,0.9c0,1,1.2,0.9,1.8,0.8c0.6,0,1.2-0.2,1.6-0.8
			C20.2-7.4,20-8.2,20-8.2z"/>
		<path id="Page-1" class="st1" d="M38.3-9.6h-2.2v-3c0-0.4-0.3-0.8-0.8-0.8c-0.9,0-1.6,0.7-1.6,1.5v2.2h-3c-0.4,0-0.8,0.3-0.8,0.8
			c0,0.9,0.7,1.5,1.6,1.5h2.2v3c0,0.4,0.3,0.8,0.8,0.8c0.9,0,1.6-0.7,1.6-1.5v-2.2h3c0.4,0,0.8-0.3,0.8-0.8
			C39.9-8.9,39.2-9.6,38.3-9.6"/>
	</g>
</g>
</svg>
