<?xml version="1.0" encoding="UTF-8" standalone="no"?>
<svg width="105px" height="86px" viewBox="0 0 105 86" version="1.1" xmlns="http://www.w3.org/2000/svg" xmlns:xlink="http://www.w3.org/1999/xlink">
    <!-- Generator: Sketch 46.1 (44463) - http://www.bohemiancoding.com/sketch -->
    <title>picto Q-R</title>
    <desc>Created with Sketch.</desc>
    <defs></defs>
    <g id="Page-1" stroke="none" stroke-width="1" fill="none" fill-rule="evenodd">
        <g id="FA-QR-nothing" transform="translate(-1054.000000, -678.000000)" fill="#D8D8D8">
            <g id="Group" transform="translate(104.000000, -2.000000)">
                <g id="picto-Q/R" transform="translate(950.000000, 680.000000)">
                    <path d="M99.9250824,0.180714479 C102.550647,0.180714479 104.520827,2.15087966 104.520827,4.77645934 L104.520827,42.0019927 L104.649257,63.4056309 L104.649257,63.4056309 C104.673117,67.3820096 101.468967,70.6248437 97.4925883,70.6487034 C97.4781878,70.6487898 97.4637871,70.648833 97.4493864,70.648833 L61.5314639,70.648833 L46.308059,70.648833 C45.1038054,70.648833 43.9057866,71.1393522 43.0527398,71.9892586 L23.3293347,85.4687717 L23.3293347,75.6755056 C23.3293347,70.2646817 22.8811572,70.6311894 18.7335899,70.648833 L4.94635527,70.648833 C2.32079106,70.648833 0.350610558,68.6786372 0.350610558,66.0530882 L0.350610558,4.77645934 C0.350610558,2.15087966 2.32079106,0.180714479 4.94635527,0.180714479 L99.9250824,0.180714479 Z M52.3244278,16.4506368 C46.7415608,16.4506368 41.7969422,19.802378 40.5863617,24.8390596 C40.1100413,26.2770265 41.0769464,28.0187861 42.5492778,28.3750003 C44.0216001,28.7312054 45.6777645,27.6240572 45.9114356,26.1273839 C46.4264447,23.9846658 48.9645604,21.9474872 52.3244278,21.9474872 C56.1699602,21.9474872 58.8233083,24.4660708 58.8233083,27.0721551 C58.8233083,32.0364341 57.4020151,32.9387696 55.1301119,35.0311365 C52.8582086,37.1235035 49.6618908,40.4472291 49.6618908,46.683351 C49.6413693,48.135344 50.9581398,49.4709229 52.4103161,49.4709229 C53.8624923,49.4709229 55.179272,48.135344 55.1587413,46.683351 C55.1587413,41.9819864 56.5431323,41.1942327 58.8519377,39.0678861 C61.1607432,36.9415394 64.3201587,33.5087929 64.3201587,27.0721551 C64.3201587,20.9768167 58.6991894,16.4506368 52.3244278,16.4506368 Z M52.4103161,50.3479454 C50.8924066,50.3479454 49.6618908,51.5784154 49.6618908,53.0963707 C49.6618908,54.6142343 50.8924066,55.8447959 52.4103161,55.8447959 C53.9282255,55.8447959 55.1587413,54.6142343 55.1587413,53.0963707 C55.1587413,51.5784154 53.9282255,50.3479454 52.4103161,50.3479454 Z" id="picto-Q-R"></path>
                </g>
            </g>
        </g>
    </g>
</svg>